M48
;DRILL file {KiCad 5.0.2-bee76a0~70~ubuntu18.04.1} date mer. 23 janv. 2019 20:47:59 CET
;FORMAT={-:-/ absolute / inch / decimal}
FMAT,2
INCH,TZ
T1C0.0157
T2C0.0315
T3C0.0394
T4C0.0400
T5C0.0433
T6C0.1063
%
G90
G05
T1
X5.4642Y-2.765
X5.5054Y-3.2492
X5.7114Y-2.9842
X5.7125Y-3.0793
X5.9024Y-3.2492
X6.0504Y-2.9852
X6.1144Y-2.9672
X6.1614Y-2.8552
T2
X5.2704Y-3.3002
X5.4184Y-3.0152
X5.4194Y-3.1142
X5.4214Y-2.8202
T3
X6.4044Y-2.7322
X6.4044Y-2.8322
X6.4044Y-2.9322
X6.4044Y-3.0322
X6.2514Y-2.4792
X6.2514Y-2.5792
X6.2514Y-2.6792
X6.2514Y-2.7792
X6.2514Y-2.8792
X6.2514Y-2.9792
X6.2514Y-3.0792
X6.2514Y-3.1792
X5.0924Y-3.3782
X5.1924Y-3.3782
X5.2924Y-3.3782
X5.3924Y-3.3782
X5.6284Y-3.3742
X5.7284Y-3.3742
X5.8284Y-3.3742
X5.9284Y-3.3742
X5.0244Y-2.4422
X5.1244Y-2.4422
X6.5754Y-2.6612
X6.5754Y-2.7612
X6.5754Y-2.8612
X6.5754Y-2.9612
X6.5754Y-3.0612
X6.5754Y-3.1612
T4
X4.9509Y-2.8148
X4.9509Y-2.9148
X4.9509Y-3.0148
X5.0509Y-2.8148
X5.0509Y-2.9148
X5.0509Y-3.0148
T5
X5.6496Y-2.4409
X5.6496Y-2.6181
X5.9055Y-2.4409
X5.9055Y-2.6181
T6
X4.8425Y-2.4803
X6.5748Y-2.4803
X4.8425Y-3.3438
X6.5748Y-3.3465
T0
M30
