G04 #@! TF.GenerationSoftware,KiCad,Pcbnew,5.0.2-bee76a0~70~ubuntu18.04.1*
G04 #@! TF.CreationDate,2019-01-23T20:48:10+01:00*
G04 #@! TF.ProjectId,Mighty841,4d696768-7479-4383-9431-2e6b69636164,1*
G04 #@! TF.SameCoordinates,Original*
G04 #@! TF.FileFunction,Soldermask,Bot*
G04 #@! TF.FilePolarity,Negative*
%FSLAX46Y46*%
G04 Gerber Fmt 4.6, Leading zero omitted, Abs format (unit mm)*
G04 Created by KiCad (PCBNEW 5.0.2-bee76a0~70~ubuntu18.04.1) date mer. 23 janv. 2019 20:48:10 CET*
%MOMM*%
%LPD*%
G01*
G04 APERTURE LIST*
%ADD10C,0.100000*%
G04 APERTURE END LIST*
D10*
G36*
X167358487Y-82623269D02*
X167700346Y-82691269D01*
X167881338Y-82766239D01*
X168137299Y-82872261D01*
X168530551Y-83135024D01*
X168864976Y-83469449D01*
X169127739Y-83862701D01*
X169308731Y-84299655D01*
X169401000Y-84763521D01*
X169401000Y-85236479D01*
X169308731Y-85700345D01*
X169127739Y-86137299D01*
X168864976Y-86530551D01*
X168530551Y-86864976D01*
X168137299Y-87127739D01*
X167881338Y-87233761D01*
X167700346Y-87308731D01*
X167578337Y-87333000D01*
X167236479Y-87401000D01*
X166763521Y-87401000D01*
X166421663Y-87333000D01*
X166299654Y-87308731D01*
X166118662Y-87233761D01*
X165862701Y-87127739D01*
X165469449Y-86864976D01*
X165135024Y-86530551D01*
X164872261Y-86137299D01*
X164691269Y-85700345D01*
X164599000Y-85236479D01*
X164599000Y-84763521D01*
X164691269Y-84299655D01*
X164872261Y-83862701D01*
X165135024Y-83469449D01*
X165469449Y-83135024D01*
X165862701Y-82872261D01*
X166118662Y-82766239D01*
X166299654Y-82691269D01*
X166641513Y-82623269D01*
X166763521Y-82599000D01*
X167236479Y-82599000D01*
X167358487Y-82623269D01*
X167358487Y-82623269D01*
G37*
G36*
X123468412Y-82577134D02*
X123700346Y-82623269D01*
X123864512Y-82691269D01*
X124137299Y-82804261D01*
X124530551Y-83067024D01*
X124864976Y-83401449D01*
X125127739Y-83794701D01*
X125308731Y-84231655D01*
X125401000Y-84695521D01*
X125401000Y-85168479D01*
X125308731Y-85632345D01*
X125127739Y-86069299D01*
X124864976Y-86462551D01*
X124530551Y-86796976D01*
X124137299Y-87059739D01*
X123973132Y-87127739D01*
X123700346Y-87240731D01*
X123468412Y-87286865D01*
X123236479Y-87333000D01*
X122763521Y-87333000D01*
X122531588Y-87286865D01*
X122299654Y-87240731D01*
X122026868Y-87127739D01*
X121862701Y-87059739D01*
X121469449Y-86796976D01*
X121135024Y-86462551D01*
X120872261Y-86069299D01*
X120691269Y-85632345D01*
X120599000Y-85168479D01*
X120599000Y-84695521D01*
X120691269Y-84231655D01*
X120872261Y-83794701D01*
X121135024Y-83401449D01*
X121469449Y-83067024D01*
X121862701Y-82804261D01*
X122135488Y-82691269D01*
X122299654Y-82623269D01*
X122531588Y-82577135D01*
X122763521Y-82531000D01*
X123236479Y-82531000D01*
X123468412Y-82577134D01*
X123468412Y-82577134D01*
G37*
G36*
X137868200Y-86707400D02*
X136066200Y-86707400D01*
X136066200Y-84905400D01*
X137868200Y-84905400D01*
X137868200Y-86707400D01*
X137868200Y-86707400D01*
G37*
G36*
X131997643Y-84911919D02*
X132063827Y-84918437D01*
X132174539Y-84952021D01*
X132233667Y-84969957D01*
X132372287Y-85044052D01*
X132390191Y-85053622D01*
X132425929Y-85082952D01*
X132527386Y-85166214D01*
X132585049Y-85236478D01*
X132639978Y-85303409D01*
X132639979Y-85303411D01*
X132723643Y-85459933D01*
X132723643Y-85459934D01*
X132775163Y-85629773D01*
X132792559Y-85806400D01*
X132775163Y-85983027D01*
X132748993Y-86069299D01*
X132723643Y-86152867D01*
X132694286Y-86207789D01*
X132639978Y-86309391D01*
X132610767Y-86344985D01*
X132527386Y-86446586D01*
X132425929Y-86529848D01*
X132390191Y-86559178D01*
X132390189Y-86559179D01*
X132233667Y-86642843D01*
X132177053Y-86660016D01*
X132063827Y-86694363D01*
X131997642Y-86700882D01*
X131931460Y-86707400D01*
X131842940Y-86707400D01*
X131776758Y-86700882D01*
X131710573Y-86694363D01*
X131597347Y-86660016D01*
X131540733Y-86642843D01*
X131384211Y-86559179D01*
X131384209Y-86559178D01*
X131348471Y-86529848D01*
X131247014Y-86446586D01*
X131163633Y-86344985D01*
X131134422Y-86309391D01*
X131080114Y-86207789D01*
X131050757Y-86152867D01*
X131025407Y-86069299D01*
X130999237Y-85983027D01*
X130981841Y-85806400D01*
X130999237Y-85629773D01*
X131050757Y-85459934D01*
X131050757Y-85459933D01*
X131134421Y-85303411D01*
X131134422Y-85303409D01*
X131189351Y-85236478D01*
X131247014Y-85166214D01*
X131348471Y-85082952D01*
X131384209Y-85053622D01*
X131402113Y-85044052D01*
X131540733Y-84969957D01*
X131599861Y-84952021D01*
X131710573Y-84918437D01*
X131776757Y-84911919D01*
X131842940Y-84905400D01*
X131931460Y-84905400D01*
X131997643Y-84911919D01*
X131997643Y-84911919D01*
G37*
G36*
X129457643Y-84911919D02*
X129523827Y-84918437D01*
X129634539Y-84952021D01*
X129693667Y-84969957D01*
X129832287Y-85044052D01*
X129850191Y-85053622D01*
X129885929Y-85082952D01*
X129987386Y-85166214D01*
X130045049Y-85236478D01*
X130099978Y-85303409D01*
X130099979Y-85303411D01*
X130183643Y-85459933D01*
X130183643Y-85459934D01*
X130235163Y-85629773D01*
X130252559Y-85806400D01*
X130235163Y-85983027D01*
X130208993Y-86069299D01*
X130183643Y-86152867D01*
X130154286Y-86207789D01*
X130099978Y-86309391D01*
X130070767Y-86344985D01*
X129987386Y-86446586D01*
X129885929Y-86529848D01*
X129850191Y-86559178D01*
X129850189Y-86559179D01*
X129693667Y-86642843D01*
X129637053Y-86660016D01*
X129523827Y-86694363D01*
X129457642Y-86700882D01*
X129391460Y-86707400D01*
X129302940Y-86707400D01*
X129236758Y-86700882D01*
X129170573Y-86694363D01*
X129057347Y-86660016D01*
X129000733Y-86642843D01*
X128844211Y-86559179D01*
X128844209Y-86559178D01*
X128808471Y-86529848D01*
X128707014Y-86446586D01*
X128623633Y-86344985D01*
X128594422Y-86309391D01*
X128540114Y-86207789D01*
X128510757Y-86152867D01*
X128485407Y-86069299D01*
X128459237Y-85983027D01*
X128441841Y-85806400D01*
X128459237Y-85629773D01*
X128510757Y-85459934D01*
X128510757Y-85459933D01*
X128594421Y-85303411D01*
X128594422Y-85303409D01*
X128649351Y-85236478D01*
X128707014Y-85166214D01*
X128808471Y-85082952D01*
X128844209Y-85053622D01*
X128862113Y-85044052D01*
X129000733Y-84969957D01*
X129059861Y-84952021D01*
X129170573Y-84918437D01*
X129236757Y-84911919D01*
X129302940Y-84905400D01*
X129391460Y-84905400D01*
X129457643Y-84911919D01*
X129457643Y-84911919D01*
G37*
G36*
X134537643Y-84911919D02*
X134603827Y-84918437D01*
X134714539Y-84952021D01*
X134773667Y-84969957D01*
X134912287Y-85044052D01*
X134930191Y-85053622D01*
X134965929Y-85082952D01*
X135067386Y-85166214D01*
X135125049Y-85236478D01*
X135179978Y-85303409D01*
X135179979Y-85303411D01*
X135263643Y-85459933D01*
X135263643Y-85459934D01*
X135315163Y-85629773D01*
X135332559Y-85806400D01*
X135315163Y-85983027D01*
X135288993Y-86069299D01*
X135263643Y-86152867D01*
X135234286Y-86207789D01*
X135179978Y-86309391D01*
X135150767Y-86344985D01*
X135067386Y-86446586D01*
X134965929Y-86529848D01*
X134930191Y-86559178D01*
X134930189Y-86559179D01*
X134773667Y-86642843D01*
X134717053Y-86660016D01*
X134603827Y-86694363D01*
X134537642Y-86700882D01*
X134471460Y-86707400D01*
X134382940Y-86707400D01*
X134316758Y-86700882D01*
X134250573Y-86694363D01*
X134137347Y-86660016D01*
X134080733Y-86642843D01*
X133924211Y-86559179D01*
X133924209Y-86559178D01*
X133888471Y-86529848D01*
X133787014Y-86446586D01*
X133703633Y-86344985D01*
X133674422Y-86309391D01*
X133620114Y-86207789D01*
X133590757Y-86152867D01*
X133565407Y-86069299D01*
X133539237Y-85983027D01*
X133521841Y-85806400D01*
X133539237Y-85629773D01*
X133590757Y-85459934D01*
X133590757Y-85459933D01*
X133674421Y-85303411D01*
X133674422Y-85303409D01*
X133729351Y-85236478D01*
X133787014Y-85166214D01*
X133888471Y-85082952D01*
X133924209Y-85053622D01*
X133942113Y-85044052D01*
X134080733Y-84969957D01*
X134139861Y-84952021D01*
X134250573Y-84918437D01*
X134316757Y-84911919D01*
X134382940Y-84905400D01*
X134471460Y-84905400D01*
X134537643Y-84911919D01*
X134537643Y-84911919D01*
G37*
G36*
X143862600Y-86605800D02*
X142060600Y-86605800D01*
X142060600Y-84803800D01*
X143862600Y-84803800D01*
X143862600Y-86605800D01*
X143862600Y-86605800D01*
G37*
G36*
X145612042Y-84810318D02*
X145678227Y-84816837D01*
X145791453Y-84851184D01*
X145848067Y-84868357D01*
X145986687Y-84942452D01*
X146004591Y-84952022D01*
X146040329Y-84981352D01*
X146141786Y-85064614D01*
X146225048Y-85166071D01*
X146254378Y-85201809D01*
X146254379Y-85201811D01*
X146338043Y-85358333D01*
X146338043Y-85358334D01*
X146389563Y-85528173D01*
X146406959Y-85704800D01*
X146389563Y-85881427D01*
X146358744Y-85983025D01*
X146338043Y-86051267D01*
X146328404Y-86069300D01*
X146254378Y-86207791D01*
X146225048Y-86243529D01*
X146141786Y-86344986D01*
X146040329Y-86428248D01*
X146004591Y-86457578D01*
X146004589Y-86457579D01*
X145848067Y-86541243D01*
X145791453Y-86558416D01*
X145678227Y-86592763D01*
X145612042Y-86599282D01*
X145545860Y-86605800D01*
X145457340Y-86605800D01*
X145391158Y-86599282D01*
X145324973Y-86592763D01*
X145211747Y-86558416D01*
X145155133Y-86541243D01*
X144998611Y-86457579D01*
X144998609Y-86457578D01*
X144962871Y-86428248D01*
X144861414Y-86344986D01*
X144778152Y-86243529D01*
X144748822Y-86207791D01*
X144674796Y-86069300D01*
X144665157Y-86051267D01*
X144644456Y-85983025D01*
X144613637Y-85881427D01*
X144596241Y-85704800D01*
X144613637Y-85528173D01*
X144665157Y-85358334D01*
X144665157Y-85358333D01*
X144748821Y-85201811D01*
X144748822Y-85201809D01*
X144778152Y-85166071D01*
X144861414Y-85064614D01*
X144962871Y-84981352D01*
X144998609Y-84952022D01*
X145016513Y-84942452D01*
X145155133Y-84868357D01*
X145211747Y-84851184D01*
X145324973Y-84816837D01*
X145391158Y-84810318D01*
X145457340Y-84803800D01*
X145545860Y-84803800D01*
X145612042Y-84810318D01*
X145612042Y-84810318D01*
G37*
G36*
X148152042Y-84810318D02*
X148218227Y-84816837D01*
X148331453Y-84851184D01*
X148388067Y-84868357D01*
X148526687Y-84942452D01*
X148544591Y-84952022D01*
X148580329Y-84981352D01*
X148681786Y-85064614D01*
X148765048Y-85166071D01*
X148794378Y-85201809D01*
X148794379Y-85201811D01*
X148878043Y-85358333D01*
X148878043Y-85358334D01*
X148929563Y-85528173D01*
X148946959Y-85704800D01*
X148929563Y-85881427D01*
X148898744Y-85983025D01*
X148878043Y-86051267D01*
X148868404Y-86069300D01*
X148794378Y-86207791D01*
X148765048Y-86243529D01*
X148681786Y-86344986D01*
X148580329Y-86428248D01*
X148544591Y-86457578D01*
X148544589Y-86457579D01*
X148388067Y-86541243D01*
X148331453Y-86558416D01*
X148218227Y-86592763D01*
X148152042Y-86599282D01*
X148085860Y-86605800D01*
X147997340Y-86605800D01*
X147931158Y-86599282D01*
X147864973Y-86592763D01*
X147751747Y-86558416D01*
X147695133Y-86541243D01*
X147538611Y-86457579D01*
X147538609Y-86457578D01*
X147502871Y-86428248D01*
X147401414Y-86344986D01*
X147318152Y-86243529D01*
X147288822Y-86207791D01*
X147214796Y-86069300D01*
X147205157Y-86051267D01*
X147184456Y-85983025D01*
X147153637Y-85881427D01*
X147136241Y-85704800D01*
X147153637Y-85528173D01*
X147205157Y-85358334D01*
X147205157Y-85358333D01*
X147288821Y-85201811D01*
X147288822Y-85201809D01*
X147318152Y-85166071D01*
X147401414Y-85064614D01*
X147502871Y-84981352D01*
X147538609Y-84952022D01*
X147556513Y-84942452D01*
X147695133Y-84868357D01*
X147751747Y-84851184D01*
X147864973Y-84816837D01*
X147931158Y-84810318D01*
X147997340Y-84803800D01*
X148085860Y-84803800D01*
X148152042Y-84810318D01*
X148152042Y-84810318D01*
G37*
G36*
X150692042Y-84810318D02*
X150758227Y-84816837D01*
X150871453Y-84851184D01*
X150928067Y-84868357D01*
X151066687Y-84942452D01*
X151084591Y-84952022D01*
X151120329Y-84981352D01*
X151221786Y-85064614D01*
X151305048Y-85166071D01*
X151334378Y-85201809D01*
X151334379Y-85201811D01*
X151418043Y-85358333D01*
X151418043Y-85358334D01*
X151469563Y-85528173D01*
X151486959Y-85704800D01*
X151469563Y-85881427D01*
X151438744Y-85983025D01*
X151418043Y-86051267D01*
X151408404Y-86069300D01*
X151334378Y-86207791D01*
X151305048Y-86243529D01*
X151221786Y-86344986D01*
X151120329Y-86428248D01*
X151084591Y-86457578D01*
X151084589Y-86457579D01*
X150928067Y-86541243D01*
X150871453Y-86558416D01*
X150758227Y-86592763D01*
X150692042Y-86599282D01*
X150625860Y-86605800D01*
X150537340Y-86605800D01*
X150471158Y-86599282D01*
X150404973Y-86592763D01*
X150291747Y-86558416D01*
X150235133Y-86541243D01*
X150078611Y-86457579D01*
X150078609Y-86457578D01*
X150042871Y-86428248D01*
X149941414Y-86344986D01*
X149858152Y-86243529D01*
X149828822Y-86207791D01*
X149754796Y-86069300D01*
X149745157Y-86051267D01*
X149724456Y-85983025D01*
X149693637Y-85881427D01*
X149676241Y-85704800D01*
X149693637Y-85528173D01*
X149745157Y-85358334D01*
X149745157Y-85358333D01*
X149828821Y-85201811D01*
X149828822Y-85201809D01*
X149858152Y-85166071D01*
X149941414Y-85064614D01*
X150042871Y-84981352D01*
X150078609Y-84952022D01*
X150096513Y-84942452D01*
X150235133Y-84868357D01*
X150291747Y-84851184D01*
X150404973Y-84816837D01*
X150471158Y-84810318D01*
X150537340Y-84803800D01*
X150625860Y-84803800D01*
X150692042Y-84810318D01*
X150692042Y-84810318D01*
G37*
G36*
X158896242Y-79857318D02*
X158962427Y-79863837D01*
X159075653Y-79898184D01*
X159132267Y-79915357D01*
X159270887Y-79989452D01*
X159288791Y-79999022D01*
X159324529Y-80028352D01*
X159425986Y-80111614D01*
X159509248Y-80213071D01*
X159538578Y-80248809D01*
X159538579Y-80248811D01*
X159622243Y-80405333D01*
X159622243Y-80405334D01*
X159673763Y-80575173D01*
X159691159Y-80751800D01*
X159673763Y-80928427D01*
X159639416Y-81041653D01*
X159622243Y-81098267D01*
X159548148Y-81236887D01*
X159538578Y-81254791D01*
X159509248Y-81290529D01*
X159425986Y-81391986D01*
X159324529Y-81475248D01*
X159288791Y-81504578D01*
X159288789Y-81504579D01*
X159132267Y-81588243D01*
X159075653Y-81605416D01*
X158962427Y-81639763D01*
X158896243Y-81646281D01*
X158830060Y-81652800D01*
X158741540Y-81652800D01*
X158675357Y-81646281D01*
X158609173Y-81639763D01*
X158495947Y-81605416D01*
X158439333Y-81588243D01*
X158282811Y-81504579D01*
X158282809Y-81504578D01*
X158247071Y-81475248D01*
X158145614Y-81391986D01*
X158062352Y-81290529D01*
X158033022Y-81254791D01*
X158023452Y-81236887D01*
X157949357Y-81098267D01*
X157932184Y-81041653D01*
X157897837Y-80928427D01*
X157880441Y-80751800D01*
X157897837Y-80575173D01*
X157949357Y-80405334D01*
X157949357Y-80405333D01*
X158033021Y-80248811D01*
X158033022Y-80248809D01*
X158062352Y-80213071D01*
X158145614Y-80111614D01*
X158247071Y-80028352D01*
X158282809Y-79999022D01*
X158300713Y-79989452D01*
X158439333Y-79915357D01*
X158495947Y-79898184D01*
X158609173Y-79863837D01*
X158675358Y-79857318D01*
X158741540Y-79850800D01*
X158830060Y-79850800D01*
X158896242Y-79857318D01*
X158896242Y-79857318D01*
G37*
G36*
X167125842Y-79400118D02*
X167192027Y-79406637D01*
X167305253Y-79440984D01*
X167361867Y-79458157D01*
X167500487Y-79532252D01*
X167518391Y-79541822D01*
X167554129Y-79571152D01*
X167655586Y-79654414D01*
X167738848Y-79755871D01*
X167768178Y-79791609D01*
X167768179Y-79791611D01*
X167851843Y-79948133D01*
X167851843Y-79948134D01*
X167903363Y-80117973D01*
X167920759Y-80294600D01*
X167903363Y-80471227D01*
X167871831Y-80575173D01*
X167851843Y-80641067D01*
X167792654Y-80751800D01*
X167768178Y-80797591D01*
X167738848Y-80833329D01*
X167655586Y-80934786D01*
X167554129Y-81018048D01*
X167518391Y-81047378D01*
X167518389Y-81047379D01*
X167361867Y-81131043D01*
X167305253Y-81148216D01*
X167192027Y-81182563D01*
X167125843Y-81189081D01*
X167059660Y-81195600D01*
X166971140Y-81195600D01*
X166904957Y-81189081D01*
X166838773Y-81182563D01*
X166725547Y-81148216D01*
X166668933Y-81131043D01*
X166512411Y-81047379D01*
X166512409Y-81047378D01*
X166476671Y-81018048D01*
X166375214Y-80934786D01*
X166291952Y-80833329D01*
X166262622Y-80797591D01*
X166238146Y-80751800D01*
X166178957Y-80641067D01*
X166158969Y-80575173D01*
X166127437Y-80471227D01*
X166110041Y-80294600D01*
X166127437Y-80117973D01*
X166178957Y-79948134D01*
X166178957Y-79948133D01*
X166262621Y-79791611D01*
X166262622Y-79791609D01*
X166291952Y-79755871D01*
X166375214Y-79654414D01*
X166476671Y-79571152D01*
X166512409Y-79541822D01*
X166530313Y-79532252D01*
X166668933Y-79458157D01*
X166725547Y-79440984D01*
X166838773Y-79406637D01*
X166904958Y-79400118D01*
X166971140Y-79393600D01*
X167059660Y-79393600D01*
X167125842Y-79400118D01*
X167125842Y-79400118D01*
G37*
G36*
X158896243Y-77317319D02*
X158962427Y-77323837D01*
X159075653Y-77358184D01*
X159132267Y-77375357D01*
X159270887Y-77449452D01*
X159288791Y-77459022D01*
X159310412Y-77476766D01*
X159425986Y-77571614D01*
X159509248Y-77673071D01*
X159538578Y-77708809D01*
X159538579Y-77708811D01*
X159622243Y-77865333D01*
X159622243Y-77865334D01*
X159673763Y-78035173D01*
X159691159Y-78211800D01*
X159673763Y-78388427D01*
X159639416Y-78501653D01*
X159622243Y-78558267D01*
X159548148Y-78696887D01*
X159538578Y-78714791D01*
X159509248Y-78750529D01*
X159425986Y-78851986D01*
X159324529Y-78935248D01*
X159288791Y-78964578D01*
X159288789Y-78964579D01*
X159132267Y-79048243D01*
X159075653Y-79065416D01*
X158962427Y-79099763D01*
X158896242Y-79106282D01*
X158830060Y-79112800D01*
X158741540Y-79112800D01*
X158675358Y-79106282D01*
X158609173Y-79099763D01*
X158495947Y-79065416D01*
X158439333Y-79048243D01*
X158282811Y-78964579D01*
X158282809Y-78964578D01*
X158247071Y-78935248D01*
X158145614Y-78851986D01*
X158062352Y-78750529D01*
X158033022Y-78714791D01*
X158023452Y-78696887D01*
X157949357Y-78558267D01*
X157932184Y-78501653D01*
X157897837Y-78388427D01*
X157880441Y-78211800D01*
X157897837Y-78035173D01*
X157949357Y-77865334D01*
X157949357Y-77865333D01*
X158033021Y-77708811D01*
X158033022Y-77708809D01*
X158062352Y-77673071D01*
X158145614Y-77571614D01*
X158261188Y-77476766D01*
X158282809Y-77459022D01*
X158300713Y-77449452D01*
X158439333Y-77375357D01*
X158495947Y-77358184D01*
X158609173Y-77323837D01*
X158675357Y-77317319D01*
X158741540Y-77310800D01*
X158830060Y-77310800D01*
X158896243Y-77317319D01*
X158896243Y-77317319D01*
G37*
G36*
X167125843Y-76860119D02*
X167192027Y-76866637D01*
X167305253Y-76900984D01*
X167361867Y-76918157D01*
X167378590Y-76927096D01*
X167518391Y-77001822D01*
X167554129Y-77031152D01*
X167655586Y-77114414D01*
X167721412Y-77194625D01*
X167768178Y-77251609D01*
X167768179Y-77251611D01*
X167851843Y-77408133D01*
X167851843Y-77408134D01*
X167903363Y-77577973D01*
X167920759Y-77754600D01*
X167903363Y-77931227D01*
X167871831Y-78035173D01*
X167851843Y-78101067D01*
X167792654Y-78211800D01*
X167768178Y-78257591D01*
X167738848Y-78293329D01*
X167655586Y-78394786D01*
X167554129Y-78478048D01*
X167518391Y-78507378D01*
X167518389Y-78507379D01*
X167361867Y-78591043D01*
X167305253Y-78608216D01*
X167192027Y-78642563D01*
X167125842Y-78649082D01*
X167059660Y-78655600D01*
X166971140Y-78655600D01*
X166904958Y-78649082D01*
X166838773Y-78642563D01*
X166725547Y-78608216D01*
X166668933Y-78591043D01*
X166512411Y-78507379D01*
X166512409Y-78507378D01*
X166476671Y-78478048D01*
X166375214Y-78394786D01*
X166291952Y-78293329D01*
X166262622Y-78257591D01*
X166238146Y-78211800D01*
X166178957Y-78101067D01*
X166158969Y-78035173D01*
X166127437Y-77931227D01*
X166110041Y-77754600D01*
X166127437Y-77577973D01*
X166178957Y-77408134D01*
X166178957Y-77408133D01*
X166262621Y-77251611D01*
X166262622Y-77251609D01*
X166309388Y-77194625D01*
X166375214Y-77114414D01*
X166476671Y-77031152D01*
X166512409Y-77001822D01*
X166652210Y-76927096D01*
X166668933Y-76918157D01*
X166725547Y-76900984D01*
X166838773Y-76866637D01*
X166904957Y-76860119D01*
X166971140Y-76853600D01*
X167059660Y-76853600D01*
X167125843Y-76860119D01*
X167125843Y-76860119D01*
G37*
G36*
X162782443Y-76123519D02*
X162848627Y-76130037D01*
X162961853Y-76164384D01*
X163018467Y-76181557D01*
X163097317Y-76223704D01*
X163174991Y-76265222D01*
X163210729Y-76294552D01*
X163312186Y-76377814D01*
X163395448Y-76479271D01*
X163424778Y-76515009D01*
X163424779Y-76515011D01*
X163508443Y-76671533D01*
X163508443Y-76671534D01*
X163559963Y-76841373D01*
X163577359Y-77018000D01*
X163559963Y-77194627D01*
X163542677Y-77251611D01*
X163508443Y-77364467D01*
X163441343Y-77490000D01*
X163424778Y-77520991D01*
X163395448Y-77556729D01*
X163312186Y-77658186D01*
X163210729Y-77741448D01*
X163174991Y-77770778D01*
X163174989Y-77770779D01*
X163018467Y-77854443D01*
X162982563Y-77865334D01*
X162848627Y-77905963D01*
X162782442Y-77912482D01*
X162716260Y-77919000D01*
X162627740Y-77919000D01*
X162561558Y-77912482D01*
X162495373Y-77905963D01*
X162361437Y-77865334D01*
X162325533Y-77854443D01*
X162169011Y-77770779D01*
X162169009Y-77770778D01*
X162133271Y-77741448D01*
X162031814Y-77658186D01*
X161948552Y-77556729D01*
X161919222Y-77520991D01*
X161902657Y-77490000D01*
X161835557Y-77364467D01*
X161801323Y-77251611D01*
X161784037Y-77194627D01*
X161766641Y-77018000D01*
X161784037Y-76841373D01*
X161835557Y-76671534D01*
X161835557Y-76671533D01*
X161919221Y-76515011D01*
X161919222Y-76515009D01*
X161948552Y-76479271D01*
X162031814Y-76377814D01*
X162133271Y-76294552D01*
X162169009Y-76265222D01*
X162246683Y-76223704D01*
X162325533Y-76181557D01*
X162382147Y-76164384D01*
X162495373Y-76130037D01*
X162561557Y-76123519D01*
X162627740Y-76117000D01*
X162716260Y-76117000D01*
X162782443Y-76123519D01*
X162782443Y-76123519D01*
G37*
G36*
X128471894Y-75674033D02*
X128644294Y-75726331D01*
X128644296Y-75726332D01*
X128803183Y-75811259D01*
X128942449Y-75925551D01*
X129056741Y-76064817D01*
X129083885Y-76115600D01*
X129141669Y-76223706D01*
X129193967Y-76396106D01*
X129211625Y-76575400D01*
X129193967Y-76754694D01*
X129144380Y-76918157D01*
X129141668Y-76927096D01*
X129056741Y-77085983D01*
X128942449Y-77225249D01*
X128803183Y-77339541D01*
X128644296Y-77424468D01*
X128644294Y-77424469D01*
X128471894Y-77476767D01*
X128337531Y-77490000D01*
X128247669Y-77490000D01*
X128113306Y-77476767D01*
X127940906Y-77424469D01*
X127940904Y-77424468D01*
X127782017Y-77339541D01*
X127642751Y-77225249D01*
X127528459Y-77085983D01*
X127443532Y-76927096D01*
X127440820Y-76918157D01*
X127391233Y-76754694D01*
X127373575Y-76575400D01*
X127391233Y-76396106D01*
X127443531Y-76223706D01*
X127501315Y-76115600D01*
X127528459Y-76064817D01*
X127642751Y-75925551D01*
X127782017Y-75811259D01*
X127940904Y-75726332D01*
X127940906Y-75726331D01*
X128113306Y-75674033D01*
X128247669Y-75660800D01*
X128337531Y-75660800D01*
X128471894Y-75674033D01*
X128471894Y-75674033D01*
G37*
G36*
X125931894Y-75674033D02*
X126104294Y-75726331D01*
X126104296Y-75726332D01*
X126263183Y-75811259D01*
X126402449Y-75925551D01*
X126516741Y-76064817D01*
X126543885Y-76115600D01*
X126601669Y-76223706D01*
X126653967Y-76396106D01*
X126671625Y-76575400D01*
X126653967Y-76754694D01*
X126604380Y-76918157D01*
X126601668Y-76927096D01*
X126516741Y-77085983D01*
X126402449Y-77225249D01*
X126263183Y-77339541D01*
X126104296Y-77424468D01*
X126104294Y-77424469D01*
X125931894Y-77476767D01*
X125797531Y-77490000D01*
X125707669Y-77490000D01*
X125573306Y-77476767D01*
X125400906Y-77424469D01*
X125400904Y-77424468D01*
X125242017Y-77339541D01*
X125102751Y-77225249D01*
X124988459Y-77085983D01*
X124903532Y-76927096D01*
X124900820Y-76918157D01*
X124851233Y-76754694D01*
X124833575Y-76575400D01*
X124851233Y-76396106D01*
X124903531Y-76223706D01*
X124961315Y-76115600D01*
X124988459Y-76064817D01*
X125102751Y-75925551D01*
X125242017Y-75811259D01*
X125400904Y-75726332D01*
X125400906Y-75726331D01*
X125573306Y-75674033D01*
X125707669Y-75660800D01*
X125797531Y-75660800D01*
X125931894Y-75674033D01*
X125931894Y-75674033D01*
G37*
G36*
X158896243Y-74777319D02*
X158962427Y-74783837D01*
X159075653Y-74818184D01*
X159132267Y-74835357D01*
X159270887Y-74909452D01*
X159288791Y-74919022D01*
X159310412Y-74936766D01*
X159425986Y-75031614D01*
X159509248Y-75133071D01*
X159538578Y-75168809D01*
X159538579Y-75168811D01*
X159622243Y-75325333D01*
X159622243Y-75325334D01*
X159673763Y-75495173D01*
X159691159Y-75671800D01*
X159673763Y-75848427D01*
X159650368Y-75925551D01*
X159622243Y-76018267D01*
X159569468Y-76117000D01*
X159538578Y-76174791D01*
X159533025Y-76181557D01*
X159425986Y-76311986D01*
X159324529Y-76395248D01*
X159288791Y-76424578D01*
X159288789Y-76424579D01*
X159132267Y-76508243D01*
X159109955Y-76515011D01*
X158962427Y-76559763D01*
X158896243Y-76566281D01*
X158830060Y-76572800D01*
X158741540Y-76572800D01*
X158675357Y-76566281D01*
X158609173Y-76559763D01*
X158461645Y-76515011D01*
X158439333Y-76508243D01*
X158282811Y-76424579D01*
X158282809Y-76424578D01*
X158247071Y-76395248D01*
X158145614Y-76311986D01*
X158038575Y-76181557D01*
X158033022Y-76174791D01*
X158002132Y-76117000D01*
X157949357Y-76018267D01*
X157921232Y-75925551D01*
X157897837Y-75848427D01*
X157880441Y-75671800D01*
X157897837Y-75495173D01*
X157949357Y-75325334D01*
X157949357Y-75325333D01*
X158033021Y-75168811D01*
X158033022Y-75168809D01*
X158062352Y-75133071D01*
X158145614Y-75031614D01*
X158261188Y-74936766D01*
X158282809Y-74919022D01*
X158300713Y-74909452D01*
X158439333Y-74835357D01*
X158495947Y-74818184D01*
X158609173Y-74783837D01*
X158675357Y-74777319D01*
X158741540Y-74770800D01*
X158830060Y-74770800D01*
X158896243Y-74777319D01*
X158896243Y-74777319D01*
G37*
G36*
X167125843Y-74320119D02*
X167192027Y-74326637D01*
X167305253Y-74360984D01*
X167361867Y-74378157D01*
X167378590Y-74387096D01*
X167518391Y-74461822D01*
X167554129Y-74491152D01*
X167655586Y-74574414D01*
X167721412Y-74654625D01*
X167768178Y-74711609D01*
X167768179Y-74711611D01*
X167851843Y-74868133D01*
X167851843Y-74868134D01*
X167903363Y-75037973D01*
X167920759Y-75214600D01*
X167903363Y-75391227D01*
X167871831Y-75495173D01*
X167851843Y-75561067D01*
X167791460Y-75674034D01*
X167768178Y-75717591D01*
X167761005Y-75726331D01*
X167655586Y-75854786D01*
X167569357Y-75925551D01*
X167518391Y-75967378D01*
X167518389Y-75967379D01*
X167361867Y-76051043D01*
X167316459Y-76064817D01*
X167192027Y-76102563D01*
X167125842Y-76109082D01*
X167059660Y-76115600D01*
X166971140Y-76115600D01*
X166904958Y-76109082D01*
X166838773Y-76102563D01*
X166714341Y-76064817D01*
X166668933Y-76051043D01*
X166512411Y-75967379D01*
X166512409Y-75967378D01*
X166461443Y-75925551D01*
X166375214Y-75854786D01*
X166269795Y-75726331D01*
X166262622Y-75717591D01*
X166239340Y-75674034D01*
X166178957Y-75561067D01*
X166158969Y-75495173D01*
X166127437Y-75391227D01*
X166110041Y-75214600D01*
X166127437Y-75037973D01*
X166178957Y-74868134D01*
X166178957Y-74868133D01*
X166262621Y-74711611D01*
X166262622Y-74711609D01*
X166309388Y-74654625D01*
X166375214Y-74574414D01*
X166476671Y-74491152D01*
X166512409Y-74461822D01*
X166652210Y-74387096D01*
X166668933Y-74378157D01*
X166725547Y-74360984D01*
X166838773Y-74326637D01*
X166904957Y-74320119D01*
X166971140Y-74313600D01*
X167059660Y-74313600D01*
X167125843Y-74320119D01*
X167125843Y-74320119D01*
G37*
G36*
X162782443Y-73583519D02*
X162848627Y-73590037D01*
X162961853Y-73624384D01*
X163018467Y-73641557D01*
X163097317Y-73683704D01*
X163174991Y-73725222D01*
X163210729Y-73754552D01*
X163312186Y-73837814D01*
X163395448Y-73939271D01*
X163424778Y-73975009D01*
X163424779Y-73975011D01*
X163508443Y-74131533D01*
X163508443Y-74131534D01*
X163559963Y-74301373D01*
X163577359Y-74478000D01*
X163559963Y-74654627D01*
X163542677Y-74711611D01*
X163508443Y-74824467D01*
X163441343Y-74950000D01*
X163424778Y-74980991D01*
X163395448Y-75016729D01*
X163312186Y-75118186D01*
X163210729Y-75201448D01*
X163174991Y-75230778D01*
X163174989Y-75230779D01*
X163018467Y-75314443D01*
X162982563Y-75325334D01*
X162848627Y-75365963D01*
X162782443Y-75372481D01*
X162716260Y-75379000D01*
X162627740Y-75379000D01*
X162561557Y-75372481D01*
X162495373Y-75365963D01*
X162361437Y-75325334D01*
X162325533Y-75314443D01*
X162169011Y-75230779D01*
X162169009Y-75230778D01*
X162133271Y-75201448D01*
X162031814Y-75118186D01*
X161948552Y-75016729D01*
X161919222Y-74980991D01*
X161902657Y-74950000D01*
X161835557Y-74824467D01*
X161801323Y-74711611D01*
X161784037Y-74654627D01*
X161766641Y-74478000D01*
X161784037Y-74301373D01*
X161835557Y-74131534D01*
X161835557Y-74131533D01*
X161919221Y-73975011D01*
X161919222Y-73975009D01*
X161948552Y-73939271D01*
X162031814Y-73837814D01*
X162133271Y-73754552D01*
X162169009Y-73725222D01*
X162246683Y-73683704D01*
X162325533Y-73641557D01*
X162382147Y-73624384D01*
X162495373Y-73590037D01*
X162561557Y-73583519D01*
X162627740Y-73577000D01*
X162716260Y-73577000D01*
X162782443Y-73583519D01*
X162782443Y-73583519D01*
G37*
G36*
X128471894Y-73134033D02*
X128644294Y-73186331D01*
X128644296Y-73186332D01*
X128803183Y-73271259D01*
X128942449Y-73385551D01*
X129056741Y-73524817D01*
X129083885Y-73575600D01*
X129141669Y-73683706D01*
X129193967Y-73856106D01*
X129211625Y-74035400D01*
X129193967Y-74214694D01*
X129144380Y-74378157D01*
X129141668Y-74387096D01*
X129056741Y-74545983D01*
X128942449Y-74685249D01*
X128803183Y-74799541D01*
X128644296Y-74884468D01*
X128644294Y-74884469D01*
X128471894Y-74936767D01*
X128337531Y-74950000D01*
X128247669Y-74950000D01*
X128113306Y-74936767D01*
X127940906Y-74884469D01*
X127940904Y-74884468D01*
X127782017Y-74799541D01*
X127642751Y-74685249D01*
X127528459Y-74545983D01*
X127443532Y-74387096D01*
X127440820Y-74378157D01*
X127391233Y-74214694D01*
X127373575Y-74035400D01*
X127391233Y-73856106D01*
X127443531Y-73683706D01*
X127501315Y-73575600D01*
X127528459Y-73524817D01*
X127642751Y-73385551D01*
X127782017Y-73271259D01*
X127940904Y-73186332D01*
X127940906Y-73186331D01*
X128113306Y-73134033D01*
X128247669Y-73120800D01*
X128337531Y-73120800D01*
X128471894Y-73134033D01*
X128471894Y-73134033D01*
G37*
G36*
X125931894Y-73134033D02*
X126104294Y-73186331D01*
X126104296Y-73186332D01*
X126263183Y-73271259D01*
X126402449Y-73385551D01*
X126516741Y-73524817D01*
X126543885Y-73575600D01*
X126601669Y-73683706D01*
X126653967Y-73856106D01*
X126671625Y-74035400D01*
X126653967Y-74214694D01*
X126604380Y-74378157D01*
X126601668Y-74387096D01*
X126516741Y-74545983D01*
X126402449Y-74685249D01*
X126263183Y-74799541D01*
X126104296Y-74884468D01*
X126104294Y-74884469D01*
X125931894Y-74936767D01*
X125797531Y-74950000D01*
X125707669Y-74950000D01*
X125573306Y-74936767D01*
X125400906Y-74884469D01*
X125400904Y-74884468D01*
X125242017Y-74799541D01*
X125102751Y-74685249D01*
X124988459Y-74545983D01*
X124903532Y-74387096D01*
X124900820Y-74378157D01*
X124851233Y-74214694D01*
X124833575Y-74035400D01*
X124851233Y-73856106D01*
X124903531Y-73683706D01*
X124961315Y-73575600D01*
X124988459Y-73524817D01*
X125102751Y-73385551D01*
X125242017Y-73271259D01*
X125400904Y-73186332D01*
X125400906Y-73186331D01*
X125573306Y-73134033D01*
X125707669Y-73120800D01*
X125797531Y-73120800D01*
X125931894Y-73134033D01*
X125931894Y-73134033D01*
G37*
G36*
X158896242Y-72237318D02*
X158962427Y-72243837D01*
X159075653Y-72278184D01*
X159132267Y-72295357D01*
X159270887Y-72369452D01*
X159288791Y-72379022D01*
X159310412Y-72396766D01*
X159425986Y-72491614D01*
X159509248Y-72593071D01*
X159538578Y-72628809D01*
X159538579Y-72628811D01*
X159622243Y-72785333D01*
X159622243Y-72785334D01*
X159673763Y-72955173D01*
X159691159Y-73131800D01*
X159673763Y-73308427D01*
X159650368Y-73385551D01*
X159622243Y-73478267D01*
X159569468Y-73577000D01*
X159538578Y-73634791D01*
X159533025Y-73641557D01*
X159425986Y-73771986D01*
X159324529Y-73855248D01*
X159288791Y-73884578D01*
X159288789Y-73884579D01*
X159132267Y-73968243D01*
X159109955Y-73975011D01*
X158962427Y-74019763D01*
X158896242Y-74026282D01*
X158830060Y-74032800D01*
X158741540Y-74032800D01*
X158675358Y-74026282D01*
X158609173Y-74019763D01*
X158461645Y-73975011D01*
X158439333Y-73968243D01*
X158282811Y-73884579D01*
X158282809Y-73884578D01*
X158247071Y-73855248D01*
X158145614Y-73771986D01*
X158038575Y-73641557D01*
X158033022Y-73634791D01*
X158002132Y-73577000D01*
X157949357Y-73478267D01*
X157921232Y-73385551D01*
X157897837Y-73308427D01*
X157880441Y-73131800D01*
X157897837Y-72955173D01*
X157949357Y-72785334D01*
X157949357Y-72785333D01*
X158033021Y-72628811D01*
X158033022Y-72628809D01*
X158062352Y-72593071D01*
X158145614Y-72491614D01*
X158261188Y-72396766D01*
X158282809Y-72379022D01*
X158300713Y-72369452D01*
X158439333Y-72295357D01*
X158495947Y-72278184D01*
X158609173Y-72243837D01*
X158675358Y-72237318D01*
X158741540Y-72230800D01*
X158830060Y-72230800D01*
X158896242Y-72237318D01*
X158896242Y-72237318D01*
G37*
G36*
X167125842Y-71780118D02*
X167192027Y-71786637D01*
X167305253Y-71820984D01*
X167361867Y-71838157D01*
X167378590Y-71847096D01*
X167518391Y-71921822D01*
X167554129Y-71951152D01*
X167655586Y-72034414D01*
X167721412Y-72114625D01*
X167768178Y-72171609D01*
X167768179Y-72171611D01*
X167851843Y-72328133D01*
X167851843Y-72328134D01*
X167903363Y-72497973D01*
X167920759Y-72674600D01*
X167903363Y-72851227D01*
X167871831Y-72955173D01*
X167851843Y-73021067D01*
X167791460Y-73134034D01*
X167768178Y-73177591D01*
X167761005Y-73186331D01*
X167655586Y-73314786D01*
X167569357Y-73385551D01*
X167518391Y-73427378D01*
X167518389Y-73427379D01*
X167361867Y-73511043D01*
X167316459Y-73524817D01*
X167192027Y-73562563D01*
X167125843Y-73569081D01*
X167059660Y-73575600D01*
X166971140Y-73575600D01*
X166904957Y-73569081D01*
X166838773Y-73562563D01*
X166714341Y-73524817D01*
X166668933Y-73511043D01*
X166512411Y-73427379D01*
X166512409Y-73427378D01*
X166461443Y-73385551D01*
X166375214Y-73314786D01*
X166269795Y-73186331D01*
X166262622Y-73177591D01*
X166239340Y-73134034D01*
X166178957Y-73021067D01*
X166158969Y-72955173D01*
X166127437Y-72851227D01*
X166110041Y-72674600D01*
X166127437Y-72497973D01*
X166178957Y-72328134D01*
X166178957Y-72328133D01*
X166262621Y-72171611D01*
X166262622Y-72171609D01*
X166309388Y-72114625D01*
X166375214Y-72034414D01*
X166476671Y-71951152D01*
X166512409Y-71921822D01*
X166652210Y-71847096D01*
X166668933Y-71838157D01*
X166725547Y-71820984D01*
X166838773Y-71786637D01*
X166904958Y-71780118D01*
X166971140Y-71773600D01*
X167059660Y-71773600D01*
X167125842Y-71780118D01*
X167125842Y-71780118D01*
G37*
G36*
X162782442Y-71043518D02*
X162848627Y-71050037D01*
X162961853Y-71084384D01*
X163018467Y-71101557D01*
X163097317Y-71143704D01*
X163174991Y-71185222D01*
X163210729Y-71214552D01*
X163312186Y-71297814D01*
X163395448Y-71399271D01*
X163424778Y-71435009D01*
X163424779Y-71435011D01*
X163508443Y-71591533D01*
X163508443Y-71591534D01*
X163559963Y-71761373D01*
X163577359Y-71938000D01*
X163559963Y-72114627D01*
X163542677Y-72171611D01*
X163508443Y-72284467D01*
X163441343Y-72410000D01*
X163424778Y-72440991D01*
X163395448Y-72476729D01*
X163312186Y-72578186D01*
X163210729Y-72661448D01*
X163174991Y-72690778D01*
X163174989Y-72690779D01*
X163018467Y-72774443D01*
X162982563Y-72785334D01*
X162848627Y-72825963D01*
X162782443Y-72832481D01*
X162716260Y-72839000D01*
X162627740Y-72839000D01*
X162561557Y-72832481D01*
X162495373Y-72825963D01*
X162361437Y-72785334D01*
X162325533Y-72774443D01*
X162169011Y-72690779D01*
X162169009Y-72690778D01*
X162133271Y-72661448D01*
X162031814Y-72578186D01*
X161948552Y-72476729D01*
X161919222Y-72440991D01*
X161902657Y-72410000D01*
X161835557Y-72284467D01*
X161801323Y-72171611D01*
X161784037Y-72114627D01*
X161766641Y-71938000D01*
X161784037Y-71761373D01*
X161835557Y-71591534D01*
X161835557Y-71591533D01*
X161919221Y-71435011D01*
X161919222Y-71435009D01*
X161948552Y-71399271D01*
X162031814Y-71297814D01*
X162133271Y-71214552D01*
X162169009Y-71185222D01*
X162246683Y-71143704D01*
X162325533Y-71101557D01*
X162382147Y-71084384D01*
X162495373Y-71050037D01*
X162561558Y-71043518D01*
X162627740Y-71037000D01*
X162716260Y-71037000D01*
X162782442Y-71043518D01*
X162782442Y-71043518D01*
G37*
G36*
X128471894Y-70594033D02*
X128644294Y-70646331D01*
X128644296Y-70646332D01*
X128803183Y-70731259D01*
X128942449Y-70845551D01*
X129056741Y-70984817D01*
X129083885Y-71035600D01*
X129141669Y-71143706D01*
X129193967Y-71316106D01*
X129211625Y-71495400D01*
X129193967Y-71674694D01*
X129144380Y-71838157D01*
X129141668Y-71847096D01*
X129056741Y-72005983D01*
X128942449Y-72145249D01*
X128803183Y-72259541D01*
X128644296Y-72344468D01*
X128644294Y-72344469D01*
X128471894Y-72396767D01*
X128337531Y-72410000D01*
X128247669Y-72410000D01*
X128113306Y-72396767D01*
X127940906Y-72344469D01*
X127940904Y-72344468D01*
X127782017Y-72259541D01*
X127642751Y-72145249D01*
X127528459Y-72005983D01*
X127443532Y-71847096D01*
X127440820Y-71838157D01*
X127391233Y-71674694D01*
X127373575Y-71495400D01*
X127391233Y-71316106D01*
X127443531Y-71143706D01*
X127501315Y-71035600D01*
X127528459Y-70984817D01*
X127642751Y-70845551D01*
X127782017Y-70731259D01*
X127940904Y-70646332D01*
X127940906Y-70646331D01*
X128113306Y-70594033D01*
X128247669Y-70580800D01*
X128337531Y-70580800D01*
X128471894Y-70594033D01*
X128471894Y-70594033D01*
G37*
G36*
X126667200Y-72410000D02*
X124838000Y-72410000D01*
X124838000Y-70580800D01*
X126667200Y-70580800D01*
X126667200Y-72410000D01*
X126667200Y-72410000D01*
G37*
G36*
X158896243Y-69697319D02*
X158962427Y-69703837D01*
X159075653Y-69738184D01*
X159132267Y-69755357D01*
X159270887Y-69829452D01*
X159288791Y-69839022D01*
X159324529Y-69868352D01*
X159425986Y-69951614D01*
X159509248Y-70053071D01*
X159538578Y-70088809D01*
X159538579Y-70088811D01*
X159622243Y-70245333D01*
X159622243Y-70245334D01*
X159673763Y-70415173D01*
X159691159Y-70591800D01*
X159673763Y-70768427D01*
X159650368Y-70845551D01*
X159622243Y-70938267D01*
X159569468Y-71037000D01*
X159538578Y-71094791D01*
X159533025Y-71101557D01*
X159425986Y-71231986D01*
X159324529Y-71315248D01*
X159288791Y-71344578D01*
X159288789Y-71344579D01*
X159132267Y-71428243D01*
X159109955Y-71435011D01*
X158962427Y-71479763D01*
X158896243Y-71486281D01*
X158830060Y-71492800D01*
X158741540Y-71492800D01*
X158675357Y-71486281D01*
X158609173Y-71479763D01*
X158461645Y-71435011D01*
X158439333Y-71428243D01*
X158282811Y-71344579D01*
X158282809Y-71344578D01*
X158247071Y-71315248D01*
X158145614Y-71231986D01*
X158038575Y-71101557D01*
X158033022Y-71094791D01*
X158002132Y-71037000D01*
X157949357Y-70938267D01*
X157921232Y-70845551D01*
X157897837Y-70768427D01*
X157880441Y-70591800D01*
X157897837Y-70415173D01*
X157949357Y-70245334D01*
X157949357Y-70245333D01*
X158033021Y-70088811D01*
X158033022Y-70088809D01*
X158062352Y-70053071D01*
X158145614Y-69951614D01*
X158247071Y-69868352D01*
X158282809Y-69839022D01*
X158300713Y-69829452D01*
X158439333Y-69755357D01*
X158495947Y-69738184D01*
X158609173Y-69703837D01*
X158675357Y-69697319D01*
X158741540Y-69690800D01*
X158830060Y-69690800D01*
X158896243Y-69697319D01*
X158896243Y-69697319D01*
G37*
G36*
X167125843Y-69240119D02*
X167192027Y-69246637D01*
X167305253Y-69280984D01*
X167361867Y-69298157D01*
X167500487Y-69372252D01*
X167518391Y-69381822D01*
X167554129Y-69411152D01*
X167655586Y-69494414D01*
X167738848Y-69595871D01*
X167768178Y-69631609D01*
X167768179Y-69631611D01*
X167851843Y-69788133D01*
X167851843Y-69788134D01*
X167903363Y-69957973D01*
X167920759Y-70134600D01*
X167903363Y-70311227D01*
X167871831Y-70415173D01*
X167851843Y-70481067D01*
X167791460Y-70594034D01*
X167768178Y-70637591D01*
X167761005Y-70646331D01*
X167655586Y-70774786D01*
X167569357Y-70845551D01*
X167518391Y-70887378D01*
X167518389Y-70887379D01*
X167361867Y-70971043D01*
X167316459Y-70984817D01*
X167192027Y-71022563D01*
X167125843Y-71029081D01*
X167059660Y-71035600D01*
X166971140Y-71035600D01*
X166904957Y-71029081D01*
X166838773Y-71022563D01*
X166714341Y-70984817D01*
X166668933Y-70971043D01*
X166512411Y-70887379D01*
X166512409Y-70887378D01*
X166461443Y-70845551D01*
X166375214Y-70774786D01*
X166269795Y-70646331D01*
X166262622Y-70637591D01*
X166239340Y-70594034D01*
X166178957Y-70481067D01*
X166158969Y-70415173D01*
X166127437Y-70311227D01*
X166110041Y-70134600D01*
X166127437Y-69957973D01*
X166178957Y-69788134D01*
X166178957Y-69788133D01*
X166262621Y-69631611D01*
X166262622Y-69631609D01*
X166291952Y-69595871D01*
X166375214Y-69494414D01*
X166476671Y-69411152D01*
X166512409Y-69381822D01*
X166530313Y-69372252D01*
X166668933Y-69298157D01*
X166725547Y-69280984D01*
X166838773Y-69246637D01*
X166904957Y-69240119D01*
X166971140Y-69233600D01*
X167059660Y-69233600D01*
X167125843Y-69240119D01*
X167125843Y-69240119D01*
G37*
G36*
X163573000Y-70299000D02*
X161771000Y-70299000D01*
X161771000Y-68497000D01*
X163573000Y-68497000D01*
X163573000Y-70299000D01*
X163573000Y-70299000D01*
G37*
G36*
X158896243Y-67157319D02*
X158962427Y-67163837D01*
X159075653Y-67198184D01*
X159132267Y-67215357D01*
X159270887Y-67289452D01*
X159288791Y-67299022D01*
X159309921Y-67316363D01*
X159425986Y-67411614D01*
X159509248Y-67513071D01*
X159538578Y-67548809D01*
X159538579Y-67548811D01*
X159622243Y-67705333D01*
X159622243Y-67705334D01*
X159673763Y-67875173D01*
X159691159Y-68051800D01*
X159673763Y-68228427D01*
X159639416Y-68341653D01*
X159622243Y-68398267D01*
X159569468Y-68497000D01*
X159538578Y-68554791D01*
X159509248Y-68590529D01*
X159425986Y-68691986D01*
X159324529Y-68775248D01*
X159288791Y-68804578D01*
X159288789Y-68804579D01*
X159132267Y-68888243D01*
X159075653Y-68905416D01*
X158962427Y-68939763D01*
X158896243Y-68946281D01*
X158830060Y-68952800D01*
X158741540Y-68952800D01*
X158675357Y-68946281D01*
X158609173Y-68939763D01*
X158495947Y-68905416D01*
X158439333Y-68888243D01*
X158282811Y-68804579D01*
X158282809Y-68804578D01*
X158247071Y-68775248D01*
X158145614Y-68691986D01*
X158062352Y-68590529D01*
X158033022Y-68554791D01*
X158002132Y-68497000D01*
X157949357Y-68398267D01*
X157932184Y-68341653D01*
X157897837Y-68228427D01*
X157880441Y-68051800D01*
X157897837Y-67875173D01*
X157949357Y-67705334D01*
X157949357Y-67705333D01*
X158033021Y-67548811D01*
X158033022Y-67548809D01*
X158062352Y-67513071D01*
X158145614Y-67411614D01*
X158261679Y-67316363D01*
X158282809Y-67299022D01*
X158300713Y-67289452D01*
X158439333Y-67215357D01*
X158495947Y-67198184D01*
X158609173Y-67163837D01*
X158675357Y-67157319D01*
X158741540Y-67150800D01*
X158830060Y-67150800D01*
X158896243Y-67157319D01*
X158896243Y-67157319D01*
G37*
G36*
X167916400Y-68495600D02*
X166114400Y-68495600D01*
X166114400Y-66693600D01*
X167916400Y-66693600D01*
X167916400Y-68495600D01*
X167916400Y-68495600D01*
G37*
G36*
X143806565Y-65489389D02*
X143997834Y-65568615D01*
X144169976Y-65683637D01*
X144316363Y-65830024D01*
X144431385Y-66002166D01*
X144510611Y-66193435D01*
X144551000Y-66396484D01*
X144551000Y-66603516D01*
X144510611Y-66806565D01*
X144431385Y-66997834D01*
X144316363Y-67169976D01*
X144169976Y-67316363D01*
X143997834Y-67431385D01*
X143806565Y-67510611D01*
X143603516Y-67551000D01*
X143396484Y-67551000D01*
X143193435Y-67510611D01*
X143002166Y-67431385D01*
X142830024Y-67316363D01*
X142683637Y-67169976D01*
X142568615Y-66997834D01*
X142489389Y-66806565D01*
X142449000Y-66603516D01*
X142449000Y-66396484D01*
X142489389Y-66193435D01*
X142568615Y-66002166D01*
X142683637Y-65830024D01*
X142830024Y-65683637D01*
X143002166Y-65568615D01*
X143193435Y-65489389D01*
X143396484Y-65449000D01*
X143603516Y-65449000D01*
X143806565Y-65489389D01*
X143806565Y-65489389D01*
G37*
G36*
X150306565Y-65489389D02*
X150497834Y-65568615D01*
X150669976Y-65683637D01*
X150816363Y-65830024D01*
X150931385Y-66002166D01*
X151010611Y-66193435D01*
X151051000Y-66396484D01*
X151051000Y-66603516D01*
X151010611Y-66806565D01*
X150931385Y-66997834D01*
X150816363Y-67169976D01*
X150669976Y-67316363D01*
X150497834Y-67431385D01*
X150306565Y-67510611D01*
X150103516Y-67551000D01*
X149896484Y-67551000D01*
X149693435Y-67510611D01*
X149502166Y-67431385D01*
X149330024Y-67316363D01*
X149183637Y-67169976D01*
X149068615Y-66997834D01*
X148989389Y-66806565D01*
X148949000Y-66603516D01*
X148949000Y-66396484D01*
X148989389Y-66193435D01*
X149068615Y-66002166D01*
X149183637Y-65830024D01*
X149330024Y-65683637D01*
X149502166Y-65568615D01*
X149693435Y-65489389D01*
X149896484Y-65449000D01*
X150103516Y-65449000D01*
X150306565Y-65489389D01*
X150306565Y-65489389D01*
G37*
G36*
X158896243Y-64617319D02*
X158962427Y-64623837D01*
X159075653Y-64658184D01*
X159132267Y-64675357D01*
X159270887Y-64749452D01*
X159288791Y-64759022D01*
X159324529Y-64788352D01*
X159425986Y-64871614D01*
X159509248Y-64973071D01*
X159538578Y-65008809D01*
X159538579Y-65008811D01*
X159622243Y-65165333D01*
X159622243Y-65165334D01*
X159673763Y-65335173D01*
X159691159Y-65511800D01*
X159673763Y-65688427D01*
X159639416Y-65801653D01*
X159622243Y-65858267D01*
X159548148Y-65996887D01*
X159538578Y-66014791D01*
X159509248Y-66050529D01*
X159425986Y-66151986D01*
X159324529Y-66235248D01*
X159288791Y-66264578D01*
X159288789Y-66264579D01*
X159132267Y-66348243D01*
X159075653Y-66365416D01*
X158962427Y-66399763D01*
X158896243Y-66406281D01*
X158830060Y-66412800D01*
X158741540Y-66412800D01*
X158675357Y-66406281D01*
X158609173Y-66399763D01*
X158495947Y-66365416D01*
X158439333Y-66348243D01*
X158282811Y-66264579D01*
X158282809Y-66264578D01*
X158247071Y-66235248D01*
X158145614Y-66151986D01*
X158062352Y-66050529D01*
X158033022Y-66014791D01*
X158023452Y-65996887D01*
X157949357Y-65858267D01*
X157932184Y-65801653D01*
X157897837Y-65688427D01*
X157880441Y-65511800D01*
X157897837Y-65335173D01*
X157949357Y-65165334D01*
X157949357Y-65165333D01*
X158033021Y-65008811D01*
X158033022Y-65008809D01*
X158062352Y-64973071D01*
X158145614Y-64871614D01*
X158247071Y-64788352D01*
X158282809Y-64759022D01*
X158300713Y-64749452D01*
X158439333Y-64675357D01*
X158495947Y-64658184D01*
X158609173Y-64623837D01*
X158675357Y-64617319D01*
X158741540Y-64610800D01*
X158830060Y-64610800D01*
X158896243Y-64617319D01*
X158896243Y-64617319D01*
G37*
G36*
X167468412Y-60645135D02*
X167700346Y-60691269D01*
X167881338Y-60766239D01*
X168137299Y-60872261D01*
X168530551Y-61135024D01*
X168864976Y-61469449D01*
X169127739Y-61862701D01*
X169141732Y-61896484D01*
X169308731Y-62299654D01*
X169324408Y-62378466D01*
X169401000Y-62763521D01*
X169401000Y-63236479D01*
X169308731Y-63700345D01*
X169127739Y-64137299D01*
X168864976Y-64530551D01*
X168530551Y-64864976D01*
X168137299Y-65127739D01*
X167881338Y-65233761D01*
X167700346Y-65308731D01*
X167468412Y-65354866D01*
X167236479Y-65401000D01*
X166763521Y-65401000D01*
X166531588Y-65354866D01*
X166299654Y-65308731D01*
X166118662Y-65233761D01*
X165862701Y-65127739D01*
X165469449Y-64864976D01*
X165135024Y-64530551D01*
X164872261Y-64137299D01*
X164691269Y-63700345D01*
X164599000Y-63236479D01*
X164599000Y-62763521D01*
X164675592Y-62378466D01*
X164691269Y-62299654D01*
X164858268Y-61896484D01*
X164872261Y-61862701D01*
X165135024Y-61469449D01*
X165469449Y-61135024D01*
X165862701Y-60872261D01*
X166118662Y-60766239D01*
X166299654Y-60691269D01*
X166531588Y-60645135D01*
X166763521Y-60599000D01*
X167236479Y-60599000D01*
X167468412Y-60645135D01*
X167468412Y-60645135D01*
G37*
G36*
X123468412Y-60645135D02*
X123700346Y-60691269D01*
X123881338Y-60766239D01*
X124137299Y-60872261D01*
X124530551Y-61135024D01*
X124864976Y-61469449D01*
X125127739Y-61862701D01*
X125141732Y-61896484D01*
X125308731Y-62299654D01*
X125324408Y-62378466D01*
X125401000Y-62763521D01*
X125401000Y-63236479D01*
X125308731Y-63700345D01*
X125127739Y-64137299D01*
X124864976Y-64530551D01*
X124530551Y-64864976D01*
X124137299Y-65127739D01*
X123881338Y-65233761D01*
X123700346Y-65308731D01*
X123468412Y-65354866D01*
X123236479Y-65401000D01*
X122763521Y-65401000D01*
X122531588Y-65354866D01*
X122299654Y-65308731D01*
X122118662Y-65233761D01*
X121862701Y-65127739D01*
X121469449Y-64864976D01*
X121135024Y-64530551D01*
X120872261Y-64137299D01*
X120691269Y-63700345D01*
X120599000Y-63236479D01*
X120599000Y-62763521D01*
X120675592Y-62378466D01*
X120691269Y-62299654D01*
X120858268Y-61896484D01*
X120872261Y-61862701D01*
X121135024Y-61469449D01*
X121469449Y-61135024D01*
X121862701Y-60872261D01*
X122118662Y-60766239D01*
X122299654Y-60691269D01*
X122531588Y-60645135D01*
X122763521Y-60599000D01*
X123236479Y-60599000D01*
X123468412Y-60645135D01*
X123468412Y-60645135D01*
G37*
G36*
X159686800Y-63872800D02*
X157884800Y-63872800D01*
X157884800Y-62070800D01*
X159686800Y-62070800D01*
X159686800Y-63872800D01*
X159686800Y-63872800D01*
G37*
G36*
X150306565Y-60989389D02*
X150497834Y-61068615D01*
X150669976Y-61183637D01*
X150816363Y-61330024D01*
X150931385Y-61502166D01*
X151010611Y-61693435D01*
X151051000Y-61896484D01*
X151051000Y-62103516D01*
X151010611Y-62306565D01*
X150931385Y-62497834D01*
X150816363Y-62669976D01*
X150669976Y-62816363D01*
X150497834Y-62931385D01*
X150306565Y-63010611D01*
X150103516Y-63051000D01*
X149896484Y-63051000D01*
X149693435Y-63010611D01*
X149502166Y-62931385D01*
X149330024Y-62816363D01*
X149183637Y-62669976D01*
X149068615Y-62497834D01*
X148989389Y-62306565D01*
X148949000Y-62103516D01*
X148949000Y-61896484D01*
X148989389Y-61693435D01*
X149068615Y-61502166D01*
X149183637Y-61330024D01*
X149330024Y-61183637D01*
X149502166Y-61068615D01*
X149693435Y-60989389D01*
X149896484Y-60949000D01*
X150103516Y-60949000D01*
X150306565Y-60989389D01*
X150306565Y-60989389D01*
G37*
G36*
X143806565Y-60989389D02*
X143997834Y-61068615D01*
X144169976Y-61183637D01*
X144316363Y-61330024D01*
X144431385Y-61502166D01*
X144510611Y-61693435D01*
X144551000Y-61896484D01*
X144551000Y-62103516D01*
X144510611Y-62306565D01*
X144431385Y-62497834D01*
X144316363Y-62669976D01*
X144169976Y-62816363D01*
X143997834Y-62931385D01*
X143806565Y-63010611D01*
X143603516Y-63051000D01*
X143396484Y-63051000D01*
X143193435Y-63010611D01*
X143002166Y-62931385D01*
X142830024Y-62816363D01*
X142683637Y-62669976D01*
X142568615Y-62497834D01*
X142489389Y-62306565D01*
X142449000Y-62103516D01*
X142449000Y-61896484D01*
X142489389Y-61693435D01*
X142568615Y-61502166D01*
X142683637Y-61330024D01*
X142830024Y-61183637D01*
X143002166Y-61068615D01*
X143193435Y-60989389D01*
X143396484Y-60949000D01*
X143603516Y-60949000D01*
X143806565Y-60989389D01*
X143806565Y-60989389D01*
G37*
G36*
X127730442Y-61137518D02*
X127796627Y-61144037D01*
X127909853Y-61178384D01*
X127966467Y-61195557D01*
X128105087Y-61269652D01*
X128122991Y-61279222D01*
X128158729Y-61308552D01*
X128260186Y-61391814D01*
X128343448Y-61493271D01*
X128372778Y-61529009D01*
X128372779Y-61529011D01*
X128456443Y-61685533D01*
X128456443Y-61685534D01*
X128507963Y-61855373D01*
X128525359Y-62032000D01*
X128507963Y-62208627D01*
X128480350Y-62299654D01*
X128456443Y-62378467D01*
X128382348Y-62517087D01*
X128372778Y-62534991D01*
X128343448Y-62570729D01*
X128260186Y-62672186D01*
X128158729Y-62755448D01*
X128122991Y-62784778D01*
X128122989Y-62784779D01*
X127966467Y-62868443D01*
X127909853Y-62885616D01*
X127796627Y-62919963D01*
X127730443Y-62926481D01*
X127664260Y-62933000D01*
X127575740Y-62933000D01*
X127509557Y-62926481D01*
X127443373Y-62919963D01*
X127330147Y-62885616D01*
X127273533Y-62868443D01*
X127117011Y-62784779D01*
X127117009Y-62784778D01*
X127081271Y-62755448D01*
X126979814Y-62672186D01*
X126896552Y-62570729D01*
X126867222Y-62534991D01*
X126857652Y-62517087D01*
X126783557Y-62378467D01*
X126759650Y-62299654D01*
X126732037Y-62208627D01*
X126714641Y-62032000D01*
X126732037Y-61855373D01*
X126783557Y-61685534D01*
X126783557Y-61685533D01*
X126867221Y-61529011D01*
X126867222Y-61529009D01*
X126896552Y-61493271D01*
X126979814Y-61391814D01*
X127081271Y-61308552D01*
X127117009Y-61279222D01*
X127134913Y-61269652D01*
X127273533Y-61195557D01*
X127330147Y-61178384D01*
X127443373Y-61144037D01*
X127509558Y-61137518D01*
X127575740Y-61131000D01*
X127664260Y-61131000D01*
X127730442Y-61137518D01*
X127730442Y-61137518D01*
G37*
G36*
X131061000Y-62933000D02*
X129259000Y-62933000D01*
X129259000Y-61131000D01*
X131061000Y-61131000D01*
X131061000Y-62933000D01*
X131061000Y-62933000D01*
G37*
M02*
